<?xml version="1.0" standalone="no"?>
<!DOCTYPE svg PUBLIC "-//W3C//DTD SVG 20010904//EN"
 "http://www.w3.org/TR/2001/REC-SVG-20010904/DTD/svg10.dtd">
<svg version="1.0" xmlns="http://www.w3.org/2000/svg"
 width="1000.000000pt" height="1000.000000pt" viewBox="0 0 1000.000000 1000.000000"
 preserveAspectRatio="xMidYMid meet">
<metadata>
Created by potrace 1.14, written by Peter Selinger 2001-2017
</metadata>
<g transform="translate(0.000000,1000.000000) scale(0.100000,-0.100000)"
fill="#000000" stroke="none">
<path d="M4925 9871 c-27 -15 -95 -51 -150 -81 -55 -29 -104 -56 -110 -60 -5
-4 -53 -30 -107 -58 -53 -28 -167 -90 -253 -137 -86 -47 -160 -85 -165 -85 -5
0 -10 -3 -12 -7 -1 -5 -23 -18 -48 -31 -25 -13 -83 -44 -130 -69 -47 -25 -242
-131 -435 -235 -192 -104 -357 -193 -365 -198 -8 -5 -37 -21 -65 -36 -27 -15
-182 -98 -343 -185 -160 -88 -294 -159 -296 -159 -2 0 -34 -18 -70 -40 -36
-22 -68 -40 -70 -40 -5 0 -143 -74 -276 -147 -25 -14 -83 -46 -130 -70 -47
-25 -98 -53 -115 -63 -32 -19 -132 -72 -260 -140 -44 -23 -84 -46 -90 -50 -5
-4 -59 -33 -120 -65 -60 -32 -132 -71 -158 -87 -26 -15 -50 -28 -52 -28 -4 0
-97 -50 -446 -241 -70 -38 -134 -80 -143 -94 -15 -22 -16 -228 -14 -2461 l3
-2436 32 -27 c17 -14 53 -37 80 -51 26 -14 98 -52 158 -86 61 -34 146 -80 190
-104 44 -24 139 -76 211 -116 72 -40 167 -92 210 -115 44 -23 133 -72 199
-109 66 -37 149 -83 185 -102 36 -20 247 -136 470 -258 223 -122 430 -236 460
-252 119 -65 243 -133 328 -182 35 -20 67 -36 72 -36 4 0 13 -7 20 -15 7 -9
15 -13 18 -10 3 3 10 1 16 -4 11 -9 214 -122 361 -201 44 -23 94 -51 110 -60
17 -10 125 -70 240 -133 116 -63 227 -124 247 -135 42 -24 227 -125 296 -162
49 -26 352 -193 432 -238 97 -54 136 -72 161 -72 26 0 61 17 264 127 61 33
142 77 180 98 39 20 84 45 100 55 17 9 80 43 140 75 61 32 115 61 120 65 6 4
60 33 120 65 61 32 115 61 120 65 6 4 51 29 100 55 50 26 113 60 140 75 28 15
190 103 360 195 420 227 433 234 490 265 28 15 70 39 95 52 25 14 133 73 240
130 107 58 215 117 240 130 25 14 90 49 145 78 55 29 105 56 110 60 6 4 46 26
90 50 44 23 132 71 195 105 63 34 144 78 180 97 36 19 175 95 310 168 135 74
272 148 305 165 91 49 193 104 265 144 36 20 86 47 111 61 26 13 54 36 63 51
15 25 16 247 16 2449 0 2277 -1 2424 -17 2451 -13 21 -68 57 -203 131 -102 55
-205 112 -230 126 -65 36 -435 239 -500 275 -30 16 -75 41 -100 55 -25 13 -74
40 -110 60 -36 19 -69 38 -75 42 -5 4 -44 25 -85 47 -119 63 -210 113 -273
149 -32 19 -60 34 -61 34 -2 0 -52 27 -112 61 -60 34 -118 65 -129 70 -11 6
-50 27 -87 47 -36 20 -205 113 -375 206 -169 94 -321 178 -338 187 -16 10 -50
29 -75 42 -25 13 -70 37 -100 54 -30 17 -82 45 -115 63 -115 63 -140 77 -185
102 -41 23 -193 107 -625 343 -82 45 -170 93 -195 107 -81 45 -144 80 -205
113 -33 18 -91 50 -130 71 -181 99 -175 97 -250 55z"/>
</g>
</svg>
